<svg width="500" height="500" viewBox="0 0 500 500" fill="none" xmlns="http://www.w3.org/2000/svg">
<path fill-rule="evenodd" clip-rule="evenodd" d="M284.618 455.47C335.057 447.035 379.357 420.476 410.597 382.717L375.061 360.173C351.466 386.936 319.415 406.065 283.088 413.382L284.618 455.47ZM408.093 302.91L445.431 322.34C453.775 299.806 458.333 275.436 458.333 250C458.333 224.564 453.775 200.193 445.431 177.659L408.093 197.09C413.654 213.714 416.667 231.505 416.667 250C416.667 268.495 413.654 286.286 408.093 302.91ZM375.061 139.827L410.597 117.283C379.357 79.5238 335.057 52.9654 284.618 44.5297L283.088 86.6176C319.415 93.9345 351.466 113.064 375.061 139.827ZM215.382 455.47L216.912 413.382C180.585 406.065 148.534 386.936 124.939 360.173L89.4033 382.717C120.643 420.476 164.943 447.035 215.382 455.47ZM54.5692 322.34L91.907 302.91C86.3459 286.286 83.3334 268.495 83.3334 250C83.3334 231.505 86.3459 213.714 91.907 197.09L54.5693 177.659C46.225 200.193 41.6667 224.564 41.6667 250C41.6667 275.436 46.225 299.806 54.5692 322.34ZM89.4033 117.283L124.939 139.827C148.534 113.064 180.585 93.9346 216.912 86.6176L215.382 44.5297C164.943 52.9654 120.643 79.5239 89.4033 117.283Z" fill="black"/>
<path d="M229.167 375L232.639 279.514L151.91 330.729L131.076 294.271L216.146 250L131.076 205.729L151.91 169.271L232.639 220.486L229.167 125H270.833L267.361 220.486L348.09 169.271L368.924 205.729L283.854 250L368.924 294.271L348.09 330.729L267.361 279.514L270.833 375H229.167Z" fill="black"/>
</svg>
